<svg width="0" height="0" style="position:absolute"><symbol viewBox="0 0 30 32" id="icon-twitter"><path stroke="#449FDB" d="M0 0"/><path d="M.786 24.84q.625.07 1.393.07 4.017 0 7.16-2.464-1.875-.036-3.357-1.152t-2.036-2.848q.59.09 1.09.09.767 0 1.517-.197-2-.412-3.313-1.992t-1.312-3.67v-.07q1.214.678 2.607.73-1.18-.785-1.875-2.053t-.696-2.75q0-1.57.786-2.91 2.16 2.66 5.26 4.258t6.633 1.777q-.143-.68-.143-1.32 0-2.394 1.688-4.08t4.08-1.69q2.5 0 4.214 1.822 1.946-.375 3.66-1.393-.66 2.053-2.535 3.178 1.66-.18 3.32-.893-1.195 1.75-2.892 2.982.018.25.018.75 0 2.32-.68 4.634t-2.062 4.44-3.294 3.758-4.607 2.607-5.77.973q-4.838 0-8.856-2.59z"/></symbol></svg>